<svg t="1679022634809" class="icon" viewBox="0 0 1024 1024" version="1.1" xmlns="http://www.w3.org/2000/svg" p-id="43008" width="48" height="48"><path d="M533.62511794 21.44894589l396.38709677 223.4742369a44.0430111 44.0430111 0 0 1 22.41789316 38.36146271v445.14270968a44.0430111 44.0430111 0 0 1-22.41789316 38.31741935l-396.38709677 223.51827923a44.0430111 44.0430111 0 0 1-43.25023588 0l-396.38709677-223.4742369A44.0430111 44.0430111 0 0 1 71.56989213 728.42735518V283.2846455a44.0430111 44.0430111 0 0 1 22.41789316-38.31741935l396.38709677-223.51828026a44.0430111 44.0430111 0 0 1 43.25023588 0z m280.28972077 344.85677419l-102.17978529 0.96894658-135.5643871 157.80610787a17.61720465 17.61720465 0 0 1-25.10451613 1.62959071l-126.93195664-113.71905342a17.61720465 17.61720465 0 0 0-24.75217239 1.23320465l-204.97617135 224.31105342a4.40430142 4.40430142 0 0 0 3.39131148 7.35518245l106.80430142-2.68662297 99.97763406-109.44688206a17.61720465 17.61720465 0 0 1 24.75217239-1.23320465l128.69367742 115.30460284a17.61720465 17.61720465 0 0 0 25.10451613-1.62959174l234.17668748-272.6262369a4.40430142 4.40430142 0 0 0-3.39131148-7.26709678z" p-id="43009"></path></svg>